<mxfile host="app.diagrams.net" modified="2022-05-07T08:17:01.964Z" agent="5.0 (Windows NT 10.0; Win64; x64) AppleWebKit/537.36 (KHTML, like Gecko) Chrome/100.0.4896.127 Safari/537.36" etag="2pLFHKfhWLsYBJuzrRzF" version="17.5.0" type="github">
  <diagram id="kgpKYQtTHZ0yAKxKKP6v" name="Page-1">
    <mxGraphModel dx="1185" dy="662" grid="1" gridSize="10" guides="1" tooltips="1" connect="1" arrows="1" fold="1" page="1" pageScale="1" pageWidth="850" pageHeight="1100" math="0" shadow="0">
      <root>
        <mxCell id="0" />
        <mxCell id="1" parent="0" />
        <mxCell id="t-FxRUCK2uULvKYfOEpa-34" value="" style="endArrow=classic;html=1;rounded=0;fontFamily=Times New Roman;fontSize=11;strokeWidth=1;dashed=1;entryX=1.002;entryY=0.602;entryDx=0;entryDy=0;entryPerimeter=0;" edge="1" parent="1">
          <mxGeometry relative="1" as="geometry">
            <mxPoint x="490" y="360" as="sourcePoint" />
            <mxPoint x="193.84500000000003" y="360.75" as="targetPoint" />
          </mxGeometry>
        </mxCell>
        <mxCell id="t-FxRUCK2uULvKYfOEpa-35" value="Votes counting done" style="edgeLabel;resizable=0;html=1;align=center;verticalAlign=middle;rounded=0;shadow=0;glass=0;sketch=0;fontFamily=Times New Roman;fontSize=11;strokeWidth=2;" connectable="0" vertex="1" parent="t-FxRUCK2uULvKYfOEpa-34">
          <mxGeometry relative="1" as="geometry" />
        </mxCell>
        <mxCell id="3nuBFxr9cyL0pnOWT2aG-1" value="Admin.admin" style="shape=umlLifeline;perimeter=lifelinePerimeter;container=1;collapsible=0;recursiveResize=0;rounded=0;shadow=0;strokeWidth=2;fontFamily=Times New Roman;fillColor=#e1d5e7;strokeColor=#9673a6;sketch=0;glass=0;fontStyle=1" parent="1" vertex="1">
          <mxGeometry x="120" y="80" width="100" height="550" as="geometry" />
        </mxCell>
        <mxCell id="3nuBFxr9cyL0pnOWT2aG-2" value="" style="points=[];perimeter=orthogonalPerimeter;rounded=0;shadow=0;strokeWidth=1;fontStyle=1;fillColor=#60a917;strokeColor=#2D7600;fontColor=#ffffff;fontFamily=Times New Roman;" parent="3nuBFxr9cyL0pnOWT2aG-1" vertex="1">
          <mxGeometry x="26.25" y="65" width="47.5" height="405" as="geometry" />
        </mxCell>
        <mxCell id="t-FxRUCK2uULvKYfOEpa-51" value="" style="shape=umlDestroy;whiteSpace=wrap;html=1;strokeWidth=3;rounded=0;shadow=0;glass=0;sketch=0;fontFamily=Times New Roman;fontSize=11;fillColor=#fa6800;fontColor=#000000;strokeColor=#C73500;" vertex="1" parent="3nuBFxr9cyL0pnOWT2aG-1">
          <mxGeometry x="35" y="510" width="30" height="30" as="geometry" />
        </mxCell>
        <mxCell id="3nuBFxr9cyL0pnOWT2aG-5" value="Server.server" style="shape=umlLifeline;perimeter=lifelinePerimeter;container=1;collapsible=0;recursiveResize=0;rounded=0;shadow=0;strokeWidth=2;fontStyle=1;fontFamily=Times New Roman;fillColor=#e1d5e7;strokeColor=#9673a6;" parent="1" vertex="1">
          <mxGeometry x="457.5" y="80" width="100" height="550" as="geometry" />
        </mxCell>
        <mxCell id="3nuBFxr9cyL0pnOWT2aG-6" value="" style="points=[];perimeter=orthogonalPerimeter;rounded=0;shadow=0;strokeWidth=1;fontStyle=1;fillColor=#60a917;fontColor=#ffffff;strokeColor=#2D7600;fontFamily=Times New Roman;" parent="3nuBFxr9cyL0pnOWT2aG-5" vertex="1">
          <mxGeometry x="26.25" y="65" width="47.5" height="405" as="geometry" />
        </mxCell>
        <mxCell id="t-FxRUCK2uULvKYfOEpa-52" value="" style="shape=umlDestroy;whiteSpace=wrap;html=1;strokeWidth=3;rounded=0;shadow=0;glass=0;sketch=0;fontFamily=Times New Roman;fontSize=11;fillColor=#fa6800;fontColor=#000000;strokeColor=#C73500;" vertex="1" parent="3nuBFxr9cyL0pnOWT2aG-5">
          <mxGeometry x="35" y="510" width="30" height="30" as="geometry" />
        </mxCell>
        <mxCell id="3nuBFxr9cyL0pnOWT2aG-8" value="" style="verticalAlign=bottom;endArrow=block;shadow=0;strokeWidth=1;fontStyle=0;fontFamily=Times New Roman;" parent="1" source="3nuBFxr9cyL0pnOWT2aG-2" target="3nuBFxr9cyL0pnOWT2aG-6" edge="1">
          <mxGeometry relative="1" as="geometry">
            <mxPoint x="275" y="160" as="sourcePoint" />
            <Array as="points">
              <mxPoint x="280" y="160" />
            </Array>
          </mxGeometry>
        </mxCell>
        <mxCell id="t-FxRUCK2uULvKYfOEpa-28" value="Admin Login Request" style="edgeLabel;html=1;align=center;verticalAlign=middle;resizable=0;points=[];fontSize=11;fontFamily=Times New Roman;" vertex="1" connectable="0" parent="3nuBFxr9cyL0pnOWT2aG-8">
          <mxGeometry x="0.0752" relative="1" as="geometry">
            <mxPoint as="offset" />
          </mxGeometry>
        </mxCell>
        <mxCell id="3nuBFxr9cyL0pnOWT2aG-9" value="" style="verticalAlign=bottom;endArrow=block;shadow=0;strokeWidth=1;fontStyle=0;fontFamily=Times New Roman;dashed=1;exitX=0.009;exitY=0.147;exitDx=0;exitDy=0;exitPerimeter=0;entryX=0.99;entryY=0.145;entryDx=0;entryDy=0;entryPerimeter=0;" parent="1" source="3nuBFxr9cyL0pnOWT2aG-6" target="3nuBFxr9cyL0pnOWT2aG-2" edge="1">
          <mxGeometry relative="1" as="geometry">
            <mxPoint x="240" y="200" as="sourcePoint" />
            <mxPoint x="190" y="200" as="targetPoint" />
          </mxGeometry>
        </mxCell>
        <mxCell id="3nuBFxr9cyL0pnOWT2aG-10" value="" style="verticalAlign=bottom;endArrow=open;endSize=8;shadow=0;strokeWidth=1;fontStyle=1;exitX=1;exitY=0.5;exitDx=0;exitDy=0;fontFamily=Times New Roman;startArrow=none;" parent="1" source="t-FxRUCK2uULvKYfOEpa-32" target="3nuBFxr9cyL0pnOWT2aG-6" edge="1">
          <mxGeometry x="-0.0243" y="22" relative="1" as="geometry">
            <mxPoint x="240" y="257" as="targetPoint" />
            <mxPoint x="200" y="270" as="sourcePoint" />
            <mxPoint as="offset" />
          </mxGeometry>
        </mxCell>
        <mxCell id="t-FxRUCK2uULvKYfOEpa-3" value="" style="endArrow=classic;html=1;rounded=0;fontFamily=Times New Roman;fontSize=14;entryX=-0.063;entryY=0.237;entryDx=0;entryDy=0;entryPerimeter=0;exitX=0.99;exitY=0.241;exitDx=0;exitDy=0;exitPerimeter=0;" edge="1" parent="1" source="3nuBFxr9cyL0pnOWT2aG-2" target="3nuBFxr9cyL0pnOWT2aG-6">
          <mxGeometry width="50" height="50" relative="1" as="geometry">
            <mxPoint x="200" y="240" as="sourcePoint" />
            <mxPoint x="330" y="240" as="targetPoint" />
          </mxGeometry>
        </mxCell>
        <mxCell id="t-FxRUCK2uULvKYfOEpa-5" value="&lt;span style=&quot;color: rgb(0 , 0 , 0) ; font-family: &amp;#34;times new roman&amp;#34; ; font-size: 11px ; font-style: normal ; font-weight: 400 ; letter-spacing: normal ; text-align: center ; text-indent: 0px ; text-transform: none ; word-spacing: 0px ; background-color: rgb(255 , 255 , 255) ; display: inline ; float: none&quot;&gt;Enter Username and password&lt;/span&gt;" style="text;whiteSpace=wrap;html=1;fontSize=14;fontFamily=Times New Roman;" vertex="1" parent="1">
          <mxGeometry x="270" y="225" width="150" height="10" as="geometry" />
        </mxCell>
        <mxCell id="t-FxRUCK2uULvKYfOEpa-6" value="" style="endArrow=classic;html=1;rounded=0;fontFamily=Times New Roman;fontSize=14;entryX=0;entryY=0.302;entryDx=0;entryDy=0;entryPerimeter=0;dashed=1;exitX=-0.04;exitY=0.328;exitDx=0;exitDy=0;exitPerimeter=0;" edge="1" parent="1" source="3nuBFxr9cyL0pnOWT2aG-6">
          <mxGeometry width="50" height="50" relative="1" as="geometry">
            <mxPoint x="490" y="277.21" as="sourcePoint" />
            <mxPoint x="195" y="277.34" as="targetPoint" />
          </mxGeometry>
        </mxCell>
        <mxCell id="t-FxRUCK2uULvKYfOEpa-9" value="&lt;span style=&quot;color: rgb(0 , 0 , 0) ; font-family: &amp;#34;times new roman&amp;#34; ; font-size: 11px ; font-style: normal ; font-weight: 400 ; letter-spacing: normal ; text-indent: 0px ; text-transform: none ; word-spacing: 0px ; background-color: rgb(255 , 255 , 255) ; display: inline ; float: none&quot;&gt;Login Successful&lt;/span&gt;" style="text;whiteSpace=wrap;html=1;fontSize=14;fontFamily=Times New Roman;align=center;" vertex="1" parent="1">
          <mxGeometry x="270" y="260" width="150" height="15" as="geometry" />
        </mxCell>
        <mxCell id="t-FxRUCK2uULvKYfOEpa-26" value="&lt;span style=&quot;font-family: &amp;#34;times new roman&amp;#34; ; font-size: 11px ; background-color: rgb(255 , 255 , 255)&quot;&gt;Enter the credentials&lt;/span&gt;" style="text;whiteSpace=wrap;html=1;fontSize=14;fontFamily=Times New Roman;align=center;" vertex="1" parent="1">
          <mxGeometry x="270" y="185" width="150" height="20" as="geometry" />
        </mxCell>
        <mxCell id="t-FxRUCK2uULvKYfOEpa-32" value="&lt;span&gt;Count voters for all Departments&amp;nbsp;&lt;/span&gt;" style="text;html=1;strokeColor=none;fillColor=none;align=center;verticalAlign=middle;whiteSpace=wrap;rounded=0;shadow=0;glass=0;sketch=0;fontFamily=Times New Roman;fontSize=11;" vertex="1" parent="1">
          <mxGeometry x="270" y="310" width="150" height="20" as="geometry" />
        </mxCell>
        <mxCell id="t-FxRUCK2uULvKYfOEpa-33" value="" style="verticalAlign=bottom;endArrow=none;endSize=8;shadow=0;strokeWidth=1;fontStyle=1;fontFamily=Times New Roman;entryX=0;entryY=0.5;entryDx=0;entryDy=0;exitX=1.05;exitY=0.434;exitDx=0;exitDy=0;exitPerimeter=0;" edge="1" parent="1" source="3nuBFxr9cyL0pnOWT2aG-2" target="t-FxRUCK2uULvKYfOEpa-32">
          <mxGeometry x="-0.0243" y="22" relative="1" as="geometry">
            <mxPoint x="490" y="334" as="targetPoint" />
            <mxPoint x="200" y="320" as="sourcePoint" />
            <mxPoint as="offset" />
          </mxGeometry>
        </mxCell>
        <mxCell id="t-FxRUCK2uULvKYfOEpa-39" value="" style="endArrow=classic;html=1;rounded=0;fontFamily=Times New Roman;fontSize=11;strokeWidth=1;" edge="1" parent="1">
          <mxGeometry relative="1" as="geometry">
            <mxPoint x="195" y="400" as="sourcePoint" />
            <mxPoint x="480" y="400" as="targetPoint" />
          </mxGeometry>
        </mxCell>
        <mxCell id="t-FxRUCK2uULvKYfOEpa-40" value="Filtering the result with criterias" style="edgeLabel;resizable=0;html=1;align=center;verticalAlign=middle;rounded=0;shadow=0;glass=0;sketch=0;fontFamily=Times New Roman;fontSize=11;strokeWidth=2;" connectable="0" vertex="1" parent="t-FxRUCK2uULvKYfOEpa-39">
          <mxGeometry relative="1" as="geometry" />
        </mxCell>
        <mxCell id="t-FxRUCK2uULvKYfOEpa-41" value="" style="endArrow=classic;html=1;rounded=0;fontFamily=Times New Roman;fontSize=11;strokeWidth=1;dashed=1;" edge="1" parent="1">
          <mxGeometry relative="1" as="geometry">
            <mxPoint x="480" y="440" as="sourcePoint" />
            <mxPoint x="195" y="440" as="targetPoint" />
          </mxGeometry>
        </mxCell>
        <mxCell id="t-FxRUCK2uULvKYfOEpa-42" value="Seperate criteria results generated" style="edgeLabel;resizable=0;html=1;align=center;verticalAlign=middle;rounded=0;shadow=0;glass=0;sketch=0;fontFamily=Times New Roman;fontSize=11;strokeWidth=2;" connectable="0" vertex="1" parent="t-FxRUCK2uULvKYfOEpa-41">
          <mxGeometry relative="1" as="geometry" />
        </mxCell>
        <mxCell id="t-FxRUCK2uULvKYfOEpa-44" value="" style="endArrow=classic;html=1;rounded=0;fontFamily=Times New Roman;fontSize=11;strokeWidth=1;dashed=1;exitX=0.02;exitY=0.829;exitDx=0;exitDy=0;exitPerimeter=0;" edge="1" parent="1" source="3nuBFxr9cyL0pnOWT2aG-6">
          <mxGeometry relative="1" as="geometry">
            <mxPoint x="480" y="480" as="sourcePoint" />
            <mxPoint x="195" y="480" as="targetPoint" />
          </mxGeometry>
        </mxCell>
        <mxCell id="t-FxRUCK2uULvKYfOEpa-45" value="Request a printable report" style="edgeLabel;resizable=0;html=1;align=center;verticalAlign=middle;rounded=0;shadow=0;glass=0;sketch=0;fontFamily=Times New Roman;fontSize=11;strokeWidth=2;" connectable="0" vertex="1" parent="t-FxRUCK2uULvKYfOEpa-44">
          <mxGeometry relative="1" as="geometry" />
        </mxCell>
        <mxCell id="t-FxRUCK2uULvKYfOEpa-47" value="" style="endArrow=classic;html=1;rounded=0;fontFamily=Times New Roman;fontSize=11;strokeWidth=1;dashed=1;" edge="1" parent="1">
          <mxGeometry relative="1" as="geometry">
            <mxPoint x="480" y="520" as="sourcePoint" />
            <mxPoint x="195" y="520" as="targetPoint" />
          </mxGeometry>
        </mxCell>
        <mxCell id="t-FxRUCK2uULvKYfOEpa-48" value="Report Generated" style="edgeLabel;resizable=0;html=1;align=center;verticalAlign=middle;rounded=0;shadow=0;glass=0;sketch=0;fontFamily=Times New Roman;fontSize=11;strokeWidth=2;" connectable="0" vertex="1" parent="t-FxRUCK2uULvKYfOEpa-47">
          <mxGeometry relative="1" as="geometry" />
        </mxCell>
        <mxCell id="t-FxRUCK2uULvKYfOEpa-54" value="&lt;font style=&quot;font-size: 18px;&quot;&gt;&lt;b style=&quot;font-size: 18px;&quot;&gt;Sequence Diagram [TechCulture]&lt;/b&gt;&lt;/font&gt;" style="text;html=1;strokeColor=none;fillColor=none;align=center;verticalAlign=middle;whiteSpace=wrap;rounded=0;shadow=0;glass=0;sketch=0;fontFamily=Times New Roman;fontSize=18;" vertex="1" parent="1">
          <mxGeometry x="200" y="640" width="290" height="40" as="geometry" />
        </mxCell>
      </root>
    </mxGraphModel>
  </diagram>
</mxfile>
